<svg version="1.1" id="Layer_1" xmlns="http://www.w3.org/2000/svg" xmlns:xlink="http://www.w3.org/1999/xlink" x="0px" y="0px"
	 width="100%" viewBox="0 0 300 300" enable-background="new 0 0 300 300" xml:space="preserve">
<path fill="#C9EBF7" opacity="1.000000" stroke="none" 
	d="
M296.000000,301.000000 
	C199.645767,301.000000 103.291542,301.000000 6.832884,300.629578 
	C6.485640,298.341003 6.031055,296.422943 6.030378,294.504730 
	C5.995861,196.669815 6.000005,98.834908 6.000000,1.000000 
	C102.354225,1.000000 198.708450,1.000000 295.167114,1.370444 
	C295.514374,3.659044 295.968964,5.577126 295.969666,7.495366 
	C296.004181,105.330238 296.000000,203.165115 296.000000,301.000000 
M110.996063,192.329895 
	C110.993782,191.889328 110.991501,191.448761 110.881325,190.230927 
	C109.932869,187.805832 108.984421,185.380737 108.027313,182.313110 
	C108.024574,181.885162 108.021835,181.457214 108.560349,180.392746 
	C108.704964,179.085098 108.973808,177.777618 108.975586,176.469772 
	C109.002502,156.681549 109.075478,136.892654 108.923645,117.105560 
	C108.894493,113.306007 109.823158,111.682579 113.933205,111.912018 
	C119.735168,112.235901 125.569534,112.048027 131.388474,111.966454 
	C133.851440,111.931915 136.630646,112.108109 136.989807,107.878838 
	C137.932663,106.861412 138.875534,105.843994 140.218475,105.289337 
	C141.140274,104.523994 142.062073,103.758644 143.482773,102.802902 
	C144.321884,102.871002 145.160980,102.939102 146.038177,103.754234 
	C147.095413,104.482544 148.152649,105.210854 149.676697,106.196022 
	C150.135620,106.729317 150.594559,107.262604 151.035904,108.607079 
	C153.312347,109.733246 155.502426,111.566566 157.880936,111.857071 
	C166.018311,112.850952 174.217697,113.364838 182.403214,113.916641 
	C184.368073,114.049110 186.370743,113.620880 188.903107,113.496162 
	C189.255417,113.593475 189.607727,113.690788 190.115189,114.544380 
	C193.061539,115.380157 196.007874,116.215927 199.142670,117.736290 
	C200.416977,118.170135 201.691269,118.603981 203.124893,119.714500 
	C205.236984,121.110893 207.349075,122.507286 209.126770,123.682587 
	C208.617386,125.267281 207.350433,127.313789 207.853668,127.941780 
	C212.018723,133.139450 216.511337,138.074615 220.967957,143.873154 
	C222.149582,148.469833 224.063828,153.020569 224.355545,157.673035 
	C224.909195,166.502670 224.911102,175.412735 224.392731,184.245407 
	C224.111694,189.034180 222.286575,193.732315 221.216080,198.734497 
	C221.216080,198.734497 221.094360,198.974945 220.380981,199.064392 
	C218.283020,202.407074 216.185059,205.749756 214.070724,208.990067 
	C214.070724,208.990067 214.114655,209.085373 213.407593,209.099640 
	C210.957382,211.789841 208.507187,214.480042 205.866776,217.569443 
	C205.684753,217.819550 205.443008,217.979248 204.377304,218.016891 
	C198.472916,220.886002 192.508347,223.641617 186.712173,226.714798 
	C185.472427,227.372131 184.459381,229.057831 184.001282,230.481903 
	C182.250031,235.925613 184.736938,240.698380 190.946884,244.849014 
	C193.681427,247.880295 196.415985,250.911575 199.657913,254.197021 
	C200.105164,254.789490 200.552414,255.381973 200.992935,256.720245 
	C203.741867,265.985321 211.157257,269.157867 218.940933,264.394165 
	C234.766922,254.708466 248.194687,242.550842 257.929840,226.582138 
	C262.524902,219.044861 266.686584,211.360382 267.002411,202.220245 
	C267.124817,198.677994 265.494171,194.322510 271.011475,193.053177 
	C271.410797,192.961304 271.755402,191.975159 271.859070,191.359909 
	C272.601501,186.954025 273.721649,182.553925 273.894653,178.119736 
	C274.752960,156.120300 269.844788,135.721466 258.064362,116.764442 
	C246.933655,98.852921 231.992966,85.605003 213.489822,76.018974 
	C200.664124,69.374290 186.928696,66.062668 172.591721,65.019234 
	C167.799347,64.670456 163.003326,64.081253 158.210800,64.098854 
	C152.240082,64.120773 148.809494,66.779762 146.536362,72.360405 
	C146.351578,72.905823 146.166794,73.451233 145.234833,73.997673 
	C144.487656,73.999260 143.740463,74.000854 142.246948,73.983109 
	C141.748077,73.955338 141.249222,73.927567 140.660034,73.384460 
	C140.641495,73.036476 140.622940,72.688499 141.140045,71.893860 
	C140.342300,71.285706 139.544571,70.677551 138.284500,69.823021 
	C137.833130,69.299782 137.381775,68.776535 136.955368,67.751053 
	C136.869278,67.461197 136.783188,67.171333 136.697098,66.881462 
	C136.447433,67.191498 136.197769,67.501526 135.324966,67.800880 
	C134.920212,67.710869 134.515472,67.620857 134.060043,67.034081 
	C134.043350,66.694374 134.026657,66.354660 133.789627,65.240730 
	C132.289413,64.829918 130.795242,64.092133 129.287949,64.064308 
	C122.385742,63.936886 115.479866,64.008286 108.301743,64.008286 
	C108.511337,62.452354 108.745438,60.714443 108.988663,58.044094 
	C108.991982,50.737484 109.143646,43.425346 108.871803,36.128986 
	C108.818275,34.692257 107.131149,33.316391 105.939163,31.296928 
	C104.320915,29.803696 102.702660,28.310463 100.983643,26.031540 
	C100.019745,25.357800 99.066017,24.116602 98.090370,24.099136 
	C89.459717,23.944616 80.823547,23.927671 72.193832,24.105032 
	C71.099113,24.127531 70.032211,25.503494 68.357338,26.425009 
	C66.914597,27.934626 65.471855,29.444242 63.551319,30.533987 
	C62.729073,31.548994 61.137775,32.627289 61.215210,33.568260 
	C61.587582,38.093246 62.410431,42.581158 63.017971,47.954239 
	C62.527637,53.148872 62.037308,58.343502 60.626392,63.729488 
	C53.075520,63.824600 45.524651,63.919712 37.307884,64.103752 
	C35.536751,65.727333 33.765617,67.350906 31.699133,69.179733 
	C31.799906,69.455482 31.900679,69.731232 32.575745,70.037468 
	C32.767010,70.050407 32.958271,70.063347 33.064217,70.706696 
	C32.960457,71.117630 32.856693,71.528564 32.176270,71.965530 
	C31.787979,71.973564 31.399691,71.981590 30.236765,72.209610 
	C29.837988,72.875793 29.098238,73.538773 29.091932,74.208656 
	C29.006737,83.263496 28.947453,92.320618 29.104338,101.373314 
	C29.125669,102.604225 30.354683,103.814201 31.133301,105.750198 
	C32.776329,106.510826 34.419361,107.271454 36.153492,108.255699 
	C36.153492,108.255699 36.083225,108.486710 36.142670,109.332565 
	C37.907940,110.221313 39.617138,111.705070 41.449886,111.877800 
	C45.558704,112.265022 49.728954,111.999718 53.874187,112.001373 
	C60.987118,112.004196 61.098560,112.006729 60.967918,118.877159 
	C60.722668,131.774979 60.185966,144.669678 60.151562,157.566681 
	C60.145790,159.730637 62.057999,161.899719 63.164764,164.921799 
	C63.137287,166.924652 63.109810,168.927521 62.298409,171.166321 
	C62.206680,175.450836 62.114952,179.735367 62.016586,184.666779 
	C62.016762,185.098038 62.016937,185.529312 62.025562,186.734955 
	C62.360153,188.500519 62.694748,190.266098 63.034050,192.674301 
	C63.034622,193.102737 63.035198,193.531174 63.098038,194.652145 
	C63.738281,196.111801 64.378525,197.571457 65.040062,199.783264 
	C69.737640,212.918640 75.572533,225.418106 84.248878,236.516510 
	C94.126869,249.152023 106.176544,258.949951 120.371872,266.383392 
	C131.975830,272.459869 144.298080,276.300293 157.143463,277.635254 
	C171.542221,279.131622 185.913589,277.931000 199.664627,272.628876 
	C203.377151,271.197388 204.246506,267.931854 202.364929,265.427826 
	C198.443802,260.209564 193.641403,255.653488 189.068253,250.133713 
	C185.024261,244.723587 181.329132,238.993530 176.786850,234.040344 
	C174.566635,231.619247 170.776840,229.265869 167.685013,229.249619 
	C153.135498,229.173080 140.385330,224.652740 129.280930,215.471786 
	C126.646278,213.293503 124.416183,212.149536 120.957886,215.426178 
	C117.784920,209.246750 114.900269,203.628845 112.430214,197.579407 
	C111.950722,196.049911 111.471230,194.520432 110.996063,192.329895 
z"/>
<path fill="#000000" opacity="1.000000" stroke="none" 
	d="
M5.500038,1.000000 
	C6.000005,98.834908 5.995861,196.669815 6.030378,294.504730 
	C6.031055,296.422943 6.485640,298.341003 6.364226,300.629578 
	C4.336025,301.000000 2.672050,301.000000 1.006057,301.000000 
	C1.004038,201.000000 1.004038,101.000000 1.005311,1.000000 
	C2.337748,1.000000 3.668912,1.000000 5.500038,1.000000 
z"/>
<path fill="#000000" opacity="1.000000" stroke="none" 
	d="
M296.499969,301.000000 
	C296.000000,203.165115 296.004181,105.330238 295.969666,7.495366 
	C295.968964,5.577126 295.514374,3.659044 295.635803,1.370444 
	C297.663971,1.000000 299.327942,1.000000 300.993958,1.000000 
	C300.995972,101.000000 300.995972,201.000000 300.994720,301.000000 
	C299.662292,301.000000 298.331116,301.000000 296.499969,301.000000 
z"/>
<path fill="#B05BA2" opacity="1.000000" stroke="none" 
	d="
M200.999664,255.974442 
	C200.552414,255.381973 200.105164,254.789490 199.325073,253.730057 
	C196.991623,250.513977 194.990997,247.764862 193.162750,244.713928 
	C194.796799,243.418350 196.795593,242.747726 197.622925,241.372391 
	C200.509109,236.574524 203.288895,231.657059 205.429932,226.502899 
	C206.016724,225.090302 204.228287,222.691040 203.661087,220.458282 
	C204.242081,219.464188 204.691803,218.756363 205.141541,218.048553 
	C205.443008,217.979248 205.684753,217.819550 206.308472,217.311829 
	C209.204987,214.397934 211.659805,211.741653 214.114655,209.085358 
	C214.114655,209.085373 214.070724,208.990067 214.391418,208.910767 
	C216.839539,205.545959 218.966949,202.260452 221.094360,198.974945 
	C221.094360,198.974945 221.216080,198.734497 221.496521,198.389786 
	C223.591980,193.721573 225.407028,189.398087 227.482269,185.015244 
	C227.819412,184.302307 227.896362,183.648697 227.972382,182.601227 
	C228.066589,181.163315 228.161743,180.119247 228.557968,178.972214 
	C228.937607,177.586716 229.016174,176.304214 229.065796,174.643082 
	C229.133057,173.515701 229.229248,172.766953 229.688568,172.016296 
	C235.072784,173.692062 236.656769,171.488724 236.024033,166.745316 
	C235.959641,166.262634 236.044083,165.760071 236.064728,164.834503 
	C236.177994,163.271545 236.286011,162.140854 236.781891,161.008179 
	C239.067352,160.097610 241.859222,159.697830 242.713852,158.195816 
	C247.389130,149.978943 251.567474,141.480286 255.964996,133.103867 
	C257.253174,130.650162 258.699677,128.279572 260.334229,126.121750 
	C263.084473,133.245483 265.574097,140.118378 267.708801,147.066345 
	C266.686584,148.222839 265.954132,149.269913 265.363098,150.391510 
	C262.542877,155.743210 259.826355,161.150772 256.929321,166.460098 
	C255.948425,168.257751 254.200089,169.675339 253.397964,171.524872 
	C250.520279,178.160278 248.394928,185.163376 245.086395,191.562790 
	C234.507629,212.024368 223.413696,232.219330 212.796585,252.661545 
	C210.730789,256.639008 208.233856,258.536591 203.609344,257.909729 
	C202.562561,257.172668 201.781113,256.573547 200.999664,255.974442 
z"/>
<path fill="#8A98BD" opacity="1.000000" stroke="none" 
	d="
M136.930405,68.253296 
	C137.381775,68.776535 137.833130,69.299782 138.593735,70.254852 
	C138.993088,71.100357 139.083206,71.514023 138.820648,72.005081 
	C132.016510,83.787270 125.559723,95.489151 119.136269,107.209305 
	C118.917923,107.607697 119.034622,108.189720 118.537399,108.777168 
	C115.450890,108.895706 112.811325,109.084641 110.196083,108.909813 
	C106.938858,108.692062 105.857124,110.062134 105.941681,113.227242 
	C106.073174,118.148788 105.859985,123.079552 105.461670,128.066772 
	C104.344780,128.919312 103.300339,129.578583 102.814461,130.524689 
	C98.974968,138.001053 95.373215,145.601471 91.447075,153.030960 
	C84.649414,165.894241 77.719757,178.688919 70.687462,191.425125 
	C70.036705,192.603729 68.251236,193.155792 66.818268,193.676697 
	C66.072342,191.577957 65.500809,189.801331 64.942871,187.695099 
	C64.901703,186.929916 64.846947,186.494293 64.860382,185.719803 
	C64.596054,184.589859 64.263527,183.798798 63.931259,182.578278 
	C63.937283,180.429932 63.943066,178.711060 64.289986,176.929047 
	C73.973221,160.099335 83.428116,143.394318 92.620216,126.545921 
	C99.456245,114.016037 106.081894,101.366493 112.546089,88.640633 
	C115.976479,81.887321 118.863518,74.858002 122.457199,67.927322 
	C126.649277,67.777863 130.380005,67.654350 134.110718,67.530838 
	C134.515472,67.620857 134.920212,67.710869 135.873779,67.936630 
	C136.591858,68.132683 136.761139,68.192986 136.930405,68.253296 
z"/>
<path fill="#72AFC8" opacity="1.000000" stroke="none" 
	d="
M64.029114,30.953859 
	C65.471855,29.444242 66.914597,27.934626 69.046852,26.476799 
	C77.820702,26.723631 85.905029,26.918671 93.982506,27.474342 
	C91.838127,31.533411 89.579056,35.167576 87.583534,38.941101 
	C77.433006,58.135780 67.278236,77.329086 57.309185,96.618088 
	C55.443127,100.228714 54.416176,104.273026 52.539066,108.135155 
	C47.711887,108.428413 43.347637,108.703712 38.621532,108.920052 
	C37.534195,108.736290 36.808708,108.611496 36.083225,108.486710 
	C36.083225,108.486710 36.153492,108.255699 35.976902,107.863525 
	C35.212387,106.642883 34.624466,105.814400 34.379501,104.915665 
	C35.412365,103.971283 36.273380,103.183746 36.766197,102.209892 
	C42.952248,89.985619 47.171482,76.582100 57.927433,67.109276 
	C58.022072,67.025917 57.984539,66.792496 58.325478,66.525139 
	C59.745136,66.219597 60.848026,66.018044 62.227234,65.830841 
	C62.419090,65.141182 62.334633,64.437187 62.090981,63.624565 
	C61.931778,63.515949 61.546974,63.538136 61.546974,63.538136 
	C62.037308,58.343502 62.527637,53.148872 63.329681,47.207241 
	C63.770634,41.291447 63.899876,36.122654 64.029114,30.953859 
z"/>
<path fill="#79A9C5" opacity="1.000000" stroke="none" 
	d="
M53.001995,108.117195 
	C54.416176,104.273026 55.443127,100.228714 57.309185,96.618088 
	C67.278236,77.329086 77.433006,58.135780 87.583534,38.941101 
	C89.579056,35.167576 91.838127,31.533411 94.421936,27.419971 
	C96.940285,26.942389 99.012344,26.879808 101.084412,26.817230 
	C102.702660,28.310463 104.320915,29.803696 106.011925,32.078499 
	C106.019768,37.903400 105.954849,42.946732 105.532898,48.001812 
	C103.282906,49.677700 100.726974,50.982914 99.601151,53.062386 
	C90.009453,70.778900 80.771950,88.687126 71.187111,106.407448 
	C69.301567,109.893410 66.375694,112.816673 63.889359,115.613510 
	C63.573040,113.486107 63.296982,111.744644 62.914009,109.629814 
	C59.538727,108.876694 56.270363,108.496941 53.001995,108.117195 
z"/>
<path fill="#869EBF" opacity="1.000000" stroke="none" 
	d="
M121.995834,67.953278 
	C118.863518,74.858002 115.976479,81.887321 112.546089,88.640633 
	C106.081894,101.366493 99.456245,114.016037 92.620216,126.545921 
	C83.428116,143.394318 73.973221,160.099335 64.213722,176.557892 
	C63.558323,174.476715 63.320324,172.703537 63.082329,170.930374 
	C63.109810,168.927521 63.137287,166.924652 63.162148,164.051071 
	C63.413288,157.452652 63.667049,151.724960 64.285309,145.956467 
	C66.409996,144.326309 68.754326,143.058258 69.834358,141.094772 
	C76.218369,129.488602 82.203430,117.662888 88.596352,106.061829 
	C89.727272,104.009560 92.146904,102.667465 94.068008,101.321823 
	C94.942352,101.905724 95.720123,102.165222 96.497902,102.424728 
	C96.690254,100.614632 96.882599,98.804527 97.102005,96.590057 
	C99.826378,88.256226 102.345512,80.258308 105.346947,72.445679 
	C106.092636,70.504646 108.398697,69.163063 110.436546,67.661903 
	C114.588982,67.836334 118.292412,67.894806 121.995834,67.953278 
z"/>
<path fill="#D7D7E2" opacity="1.000000" stroke="none" 
	d="
M200.996307,256.347351 
	C201.781113,256.573547 202.562561,257.172668 203.753342,258.227631 
	C209.234161,265.631317 210.625336,265.853638 218.121246,261.806549 
	C230.591522,255.073715 240.912033,245.894409 249.650925,234.812881 
	C263.548248,217.190155 269.803253,198.251251 259.972839,176.444626 
	C259.247192,174.835022 258.609589,173.185715 257.931061,171.554871 
	C258.276825,171.339081 258.622589,171.123276 258.968353,170.907471 
	C259.751831,171.629166 260.535309,172.350861 261.310333,173.290039 
	C261.454895,173.783218 261.687622,173.942749 262.142700,174.311829 
	C264.158539,178.436203 266.031769,182.234863 267.920105,186.372406 
	C268.390045,187.259598 268.844910,187.807892 269.299744,188.356201 
	C269.527466,187.239899 269.755188,186.123596 270.052307,184.575134 
	C271.546478,171.642151 271.112518,159.244278 268.063751,146.991257 
	C265.574097,140.118378 263.084473,133.245483 260.282715,125.780350 
	C259.319336,123.853615 258.840851,122.395035 257.987030,121.206001 
	C254.148453,115.860291 250.203262,110.591133 246.226151,105.004646 
	C241.484009,100.288429 236.812241,95.861923 232.073944,91.118423 
	C226.358093,87.140190 220.708786,83.478935 214.822235,79.569328 
	C209.065811,77.172478 203.546631,75.023979 197.776215,72.609047 
	C192.731430,71.423592 187.937866,70.504585 182.838669,69.352646 
	C177.353912,68.727936 172.174789,68.336151 166.531036,67.912537 
	C159.870743,68.348106 152.976456,65.787415 147.832214,72.016785 
	C147.366486,72.005188 147.180206,71.999977 146.993927,71.994759 
	C148.809494,66.779762 152.240082,64.120773 158.210800,64.098854 
	C163.003326,64.081253 167.799347,64.670456 172.591721,65.019234 
	C186.928696,66.062668 200.664124,69.374290 213.489822,76.018974 
	C231.992966,85.605003 246.933655,98.852921 258.064362,116.764442 
	C269.844788,135.721466 274.752960,156.120300 273.894653,178.119736 
	C273.721649,182.553925 272.601501,186.954025 271.859070,191.359909 
	C271.755402,191.975159 271.410797,192.961304 271.011475,193.053177 
	C265.494171,194.322510 267.124817,198.677994 267.002411,202.220245 
	C266.686584,211.360382 262.524902,219.044861 257.929840,226.582138 
	C248.194687,242.550842 234.766922,254.708466 218.940933,264.394165 
	C211.157257,269.157867 203.741867,265.985321 200.996307,256.347351 
z"/>
<path fill="#A17AAE" opacity="1.000000" stroke="none" 
	d="
M198.027451,72.875488 
	C203.546631,75.023979 209.065811,77.172478 214.804138,79.992683 
	C214.467133,82.869492 214.322449,85.293663 213.284836,87.242401 
	C208.328217,96.551628 203.129333,105.731865 197.608368,114.983887 
	C194.786789,114.602570 192.373413,114.195335 189.960037,113.788094 
	C189.607727,113.690788 189.255417,113.593475 188.444489,113.174446 
	C185.324020,111.888809 182.662170,110.924896 180.009033,109.598175 
	C180.575790,108.087639 181.125992,106.936020 181.693100,105.792793 
	C187.136246,94.819542 192.582275,83.847725 198.027451,72.875488 
z"/>
<path fill="#9887B5" opacity="1.000000" stroke="none" 
	d="
M166.995667,67.944366 
	C172.174789,68.336151 177.353912,68.727936 182.765427,69.759636 
	C178.960159,78.483528 174.822250,86.519554 170.924164,94.670280 
	C168.744858,99.227135 166.963547,103.974319 164.565643,108.727127 
	C161.740524,108.906616 159.352646,108.994720 156.694138,108.841721 
	C154.964706,108.444992 153.505920,108.289368 151.803436,108.035416 
	C151.390991,107.890015 151.222229,107.842957 151.053482,107.795898 
	C150.594559,107.262604 150.135620,106.729317 149.290100,105.750015 
	C148.559875,104.191216 148.216232,103.078415 147.968903,101.725250 
	C148.134048,101.326569 148.202896,101.168259 148.615204,100.996674 
	C150.327896,99.931549 152.153198,99.154419 152.982697,97.777412 
	C155.707016,93.254852 158.290680,88.617035 160.512054,83.830292 
	C162.916946,78.648071 164.854370,73.248909 166.995667,67.944366 
z"/>
<path fill="#D1D8E0" opacity="1.000000" stroke="none" 
	d="
M189.201111,250.825317 
	C193.641403,255.653488 198.443802,260.209564 202.364929,265.427826 
	C204.246506,267.931854 203.377151,271.197388 199.664627,272.628876 
	C185.913589,277.931000 171.542221,279.131622 157.143463,277.635254 
	C144.298080,276.300293 131.975830,272.459869 120.371872,266.383392 
	C106.176544,258.949951 94.126869,249.152023 84.248878,236.516510 
	C75.572533,225.418106 69.737640,212.918640 65.266640,199.294128 
	C65.944000,198.535034 66.394783,198.265106 67.125412,198.227158 
	C68.514954,200.753922 69.624657,203.048691 70.756348,205.712372 
	C72.454277,210.059006 74.130203,214.036728 75.850601,218.376785 
	C79.227570,223.900513 82.560074,229.061905 86.039444,234.520233 
	C91.083900,239.903214 95.981491,244.989273 101.052628,250.365143 
	C107.091461,254.554993 112.956757,258.455048 119.042732,262.623505 
	C126.175201,265.598541 133.086990,268.305145 140.372437,271.081299 
	C143.490982,271.793854 146.235870,272.436829 149.170197,273.297913 
	C149.911041,273.612000 150.462418,273.707977 151.387817,273.910889 
	C153.526749,274.189758 155.291702,274.361694 157.504456,274.666992 
	C171.322067,275.935944 184.440079,274.425995 197.375931,271.032135 
	C200.945938,270.095520 201.706604,267.883087 199.433456,264.829071 
	C195.985855,260.197144 192.464783,255.619934 189.030945,250.970306 
	C189.086945,250.921143 189.201111,250.825317 189.201111,250.825317 
z"/>
<path fill="#6AB2C9" opacity="1.000000" stroke="none" 
	d="
M58.008720,66.629135 
	C57.984539,66.792496 58.022072,67.025917 57.927433,67.109276 
	C47.171482,76.582100 42.952248,89.985619 36.766197,102.209892 
	C36.273380,103.183746 35.412365,103.971283 34.153347,104.905586 
	C33.584236,104.965775 33.132103,104.954376 33.085365,104.630882 
	C32.932781,103.884903 32.826935,103.462425 32.802292,102.573875 
	C32.839973,92.051704 32.796455,81.995605 32.752930,71.939499 
	C32.856693,71.528564 32.960457,71.117630 33.386246,70.215302 
	C35.470192,68.464638 37.232113,67.205360 39.459099,65.972672 
	C45.952351,66.209213 51.980537,66.419174 58.008720,66.629135 
z"/>
<path fill="#9194BB" opacity="1.000000" stroke="none" 
	d="
M118.995148,108.686142 
	C119.034622,108.189720 118.917923,107.607697 119.136269,107.209305 
	C125.559723,95.489151 132.016510,83.787270 139.064362,72.052292 
	C139.974457,72.130745 140.289017,72.236877 140.604401,72.340515 
	C140.622940,72.688499 140.641495,73.036476 140.496094,74.000092 
	C140.160919,84.686012 139.989655,94.756294 139.818405,104.826576 
	C138.875534,105.843994 137.932663,106.861412 136.470825,108.256615 
	C130.299606,108.651642 124.647377,108.668892 118.995148,108.686142 
z"/>
<path fill="#D1D8E0" opacity="1.000000" stroke="none" 
	d="
M112.015625,198.010941 
	C114.900269,203.628845 117.784920,209.246750 120.957886,215.426178 
	C124.416183,212.149536 126.646278,213.293503 129.280930,215.471786 
	C140.385330,224.652740 153.135498,229.173080 167.685013,229.249619 
	C170.776840,229.265869 174.566635,231.619247 176.786850,234.040344 
	C181.329132,238.993530 185.024261,244.723587 189.134674,250.479523 
	C189.201111,250.825317 189.086945,250.921143 188.735291,250.818207 
	C184.639084,246.947449 180.894531,243.179611 177.183380,239.070648 
	C174.967621,232.264130 169.871826,231.365433 163.714264,231.728638 
	C161.611862,231.326797 159.800629,231.169983 157.594635,230.938782 
	C150.271194,228.586761 143.315598,226.386398 136.429413,223.986877 
	C134.216202,223.215652 132.186050,221.919022 130.083801,220.635254 
	C129.814194,220.255539 129.532944,220.103317 129.251694,219.951111 
	C129.482971,220.305634 129.714264,220.660141 129.996307,221.339020 
	C130.752197,222.757980 131.457306,223.852554 132.150665,225.286743 
	C133.759476,227.416519 135.380051,229.206696 136.795395,231.250549 
	C135.751968,231.652969 134.913788,231.801712 133.784027,231.783142 
	C128.782944,226.984039 124.073418,222.352295 119.316177,217.363419 
	C118.733696,216.014587 118.123840,215.055511 117.676765,214.025726 
	C115.371162,208.715057 113.107277,203.386292 111.125351,198.046585 
	C111.619781,198.023209 111.817703,198.017075 112.015625,198.010941 
z"/>
<path fill="#D8E1E9" opacity="1.000000" stroke="none" 
	d="
M118.537399,108.777168 
	C124.647377,108.668892 130.299606,108.651642 136.407532,108.548340 
	C136.630646,112.108109 133.851440,111.931915 131.388474,111.966454 
	C125.569534,112.048027 119.735168,112.235901 113.933205,111.912018 
	C109.823158,111.682579 108.894493,113.306007 108.923645,117.105560 
	C109.075478,136.892654 109.002502,156.681549 108.975586,176.469772 
	C108.973808,177.777618 108.704964,179.085098 108.015091,180.399734 
	C106.945541,176.267059 106.421249,172.127380 105.883759,167.738159 
	C105.870567,167.488586 105.758209,167.001465 105.837234,166.537888 
	C105.872818,159.383850 105.829376,152.693390 105.852829,145.539276 
	C105.877457,139.385880 105.835175,133.696136 105.792892,128.006409 
	C105.859985,123.079552 106.073174,118.148788 105.941681,113.227242 
	C105.857124,110.062134 106.938858,108.692062 110.196083,108.909813 
	C112.811325,109.084641 115.450890,108.895706 118.537399,108.777168 
z"/>
<path fill="#DCDCE7" opacity="1.000000" stroke="none" 
	d="
M220.904831,143.089233 
	C216.511337,138.074615 212.018723,133.139450 207.853668,127.941780 
	C207.350433,127.313789 208.617386,125.267281 209.126770,123.682587 
	C207.349075,122.507286 205.236984,121.110893 203.179352,119.203957 
	C203.233826,118.693413 203.500824,118.348022 203.850815,118.454132 
	C208.431427,120.801384 212.662048,123.042519 217.071838,125.548416 
	C220.943665,129.958328 224.636292,134.103500 228.406082,138.627747 
	C230.300461,143.706573 232.117691,148.406311 233.942474,153.503815 
	C233.606201,155.620636 233.262390,157.339706 232.694901,158.855743 
	C232.041367,157.756577 231.611511,156.860443 231.145599,155.722626 
	C231.109543,155.480957 230.918839,155.030975 230.892487,154.663315 
	C228.560425,148.292465 226.345474,142.228226 220.051514,138.771606 
	C220.397141,140.157883 220.742783,141.544174 221.042236,142.969818 
	C220.996063,143.009201 220.904831,143.089233 220.904831,143.089233 
z"/>
<path fill="#DAEAF0" opacity="1.000000" stroke="none" 
	d="
M63.920811,145.997269 
	C63.667049,151.724960 63.413288,157.452652 63.121754,163.623383 
	C62.057999,161.899719 60.145790,159.730637 60.151562,157.566681 
	C60.185966,144.669678 60.722668,131.774979 60.967918,118.877159 
	C61.098560,112.006729 60.987118,112.004196 53.874187,112.001373 
	C49.728954,111.999718 45.558704,112.265022 41.449886,111.877800 
	C39.617138,111.705070 37.907940,110.221313 36.112946,108.909637 
	C36.808708,108.611496 37.534195,108.736290 38.930798,109.202820 
	C47.408253,109.697441 55.214592,109.850311 63.020927,110.003189 
	C63.296982,111.744644 63.573040,113.486107 63.850193,116.030869 
	C63.874462,126.555206 63.897636,136.276230 63.920811,145.997269 
z"/>
<path fill="#D8E1E9" opacity="1.000000" stroke="none" 
	d="
M109.987534,67.545944 
	C108.398697,69.163063 106.092636,70.504646 105.346947,72.445679 
	C102.345512,80.258308 99.826378,88.256226 96.723083,96.594757 
	C95.811028,97.018005 95.304947,97.032188 94.786499,96.615501 
	C95.954727,90.136337 97.135315,84.088051 98.612511,77.942207 
	C99.206589,77.113083 99.504059,76.381500 99.824860,75.289078 
	C100.891922,72.740227 102.052299,70.598892 102.950981,68.352844 
	C104.177284,65.287964 105.204201,62.143314 106.649750,59.027008 
	C107.648445,59.006279 108.313995,58.991402 108.979546,58.976528 
	C108.745438,60.714443 108.511337,62.452354 108.301743,64.008286 
	C115.479866,64.008286 122.385742,63.936886 129.287949,64.064308 
	C130.795242,64.092133 132.289413,64.829918 133.430023,65.623413 
	C126.800507,66.004501 120.528183,65.909508 114.262512,66.071716 
	C112.825760,66.108910 111.411919,67.031067 109.987534,67.545944 
z"/>
<path fill="#DCDCE7" opacity="1.000000" stroke="none" 
	d="
M228.256897,179.075195 
	C228.161743,180.119247 228.066589,181.163315 227.750519,182.796555 
	C227.427094,183.948685 227.324570,184.511642 227.222061,185.074585 
	C225.407028,189.398087 223.591980,193.721573 221.467468,198.258209 
	C222.286575,193.732315 224.111694,189.034180 224.392731,184.245407 
	C224.911102,175.412735 224.909195,166.502670 224.355545,157.673035 
	C224.063828,153.020569 222.149582,148.469833 220.936401,143.481201 
	C220.904831,143.089233 220.996063,143.009201 221.338898,143.151016 
	C222.477112,144.719650 223.574783,146.059509 224.014694,147.588593 
	C225.772278,153.697769 227.325363,159.865784 228.955902,166.442154 
	C229.080261,168.587585 229.202850,170.302887 229.325439,172.018188 
	C229.229248,172.766953 229.133057,173.515701 228.794388,174.884903 
	C228.453568,176.695297 228.355225,177.885239 228.256897,179.075195 
z"/>
<path fill="#D0EBF5" opacity="1.000000" stroke="none" 
	d="
M148.271729,101.009941 
	C148.202896,101.168259 148.134048,101.326569 147.691833,101.765060 
	C146.879013,102.365891 146.439545,102.686546 146.000092,103.007202 
	C145.160980,102.939102 144.321884,102.871002 143.236389,102.430161 
	C142.991104,92.705765 142.992188,83.354103 142.993286,74.002441 
	C143.740463,74.000854 144.487656,73.999260 145.917862,74.004120 
	C147.013016,74.018921 147.425125,74.027275 147.892105,74.479027 
	C147.903015,77.605469 147.859085,80.288513 147.452911,83.104630 
	C145.723099,87.595459 144.498444,91.944946 147.883026,96.444641 
	C148.047974,98.242081 148.159851,99.626007 148.271729,101.009941 
z"/>
<path fill="#CEDAE2" opacity="1.000000" stroke="none" 
	d="
M101.034027,26.424385 
	C99.012344,26.879808 96.940285,26.942389 94.428787,27.059341 
	C85.905029,26.918671 77.820702,26.723631 69.344391,26.390499 
	C70.032211,25.503494 71.099113,24.127531 72.193832,24.105032 
	C80.823547,23.927671 89.459717,23.944616 98.090370,24.099136 
	C99.066017,24.116602 100.019745,25.357800 101.034027,26.424385 
z"/>
<path fill="#DCDCE7" opacity="1.000000" stroke="none" 
	d="
M151.044693,108.201492 
	C151.222229,107.842957 151.390991,107.890015 152.013184,108.270447 
	C153.966019,108.763481 155.465408,108.923157 156.964783,109.082825 
	C159.352646,108.994720 161.740524,108.906616 164.997620,108.832230 
	C167.909790,109.040909 169.952728,109.235878 172.080917,109.695152 
	C173.098236,110.002647 174.030304,110.045837 175.381226,110.054428 
	C177.200134,110.000214 178.600220,109.980598 180.000305,109.960983 
	C182.662170,110.924896 185.324020,111.888809 188.170959,113.151627 
	C186.370743,113.620880 184.368073,114.049110 182.403214,113.916641 
	C174.217697,113.364838 166.018311,112.850952 157.880936,111.857071 
	C155.502426,111.566566 153.312347,109.733246 151.044693,108.201492 
z"/>
<path fill="#D8E1E9" opacity="1.000000" stroke="none" 
	d="
M142.620117,73.992775 
	C142.992188,83.354103 142.991104,92.705765 142.986938,102.525360 
	C142.062073,103.758644 141.140274,104.523994 140.018433,105.057953 
	C139.989655,94.756294 140.160919,84.686012 140.541260,74.257767 
	C141.249222,73.927567 141.748077,73.955338 142.620117,73.992775 
z"/>
<path fill="#D7D7E2" opacity="1.000000" stroke="none" 
	d="
M204.759415,218.032715 
	C204.691803,218.756363 204.242081,219.464188 203.345795,220.547394 
	C198.315628,223.247940 193.698181,225.509354 189.158020,227.916489 
	C184.773972,230.240799 184.115189,233.653290 187.010513,237.731796 
	C188.441193,239.747131 189.716217,241.872955 191.003326,244.000473 
	C190.944946,244.052170 190.827118,244.154312 190.827118,244.154312 
	C184.736938,240.698380 182.250031,235.925613 184.001282,230.481903 
	C184.459381,229.057831 185.472427,227.372131 186.712173,226.714798 
	C192.508347,223.641617 198.472916,220.886002 204.759415,218.032715 
z"/>
<path fill="#CEDAE2" opacity="1.000000" stroke="none" 
	d="
M108.984100,58.510311 
	C108.313995,58.991402 107.648445,59.006279 106.552261,58.573547 
	C106.044388,54.747314 105.967163,51.368690 105.889938,47.990067 
	C105.954849,42.946732 106.019768,37.903400 106.141052,32.386257 
	C107.131149,33.316391 108.818275,34.692257 108.871803,36.128986 
	C109.143646,43.425346 108.991982,50.737484 108.984100,58.510311 
z"/>
<path fill="#DCE8EE" opacity="1.000000" stroke="none" 
	d="
M58.325481,66.525139 
	C51.980537,66.419174 45.952351,66.209213 39.345169,65.724564 
	C38.502037,64.971527 38.237907,64.493179 37.973778,64.014824 
	C45.524651,63.919712 53.075520,63.824600 61.086685,63.633812 
	C61.546974,63.538136 61.931778,63.515949 62.005856,63.969208 
	C62.036930,64.887146 61.993923,65.351814 61.950920,65.816490 
	C60.848026,66.018044 59.745136,66.219597 58.325481,66.525139 
z"/>
<path fill="#DAEAF0" opacity="1.000000" stroke="none" 
	d="
M32.721092,103.039940 
	C32.826935,103.462425 32.932781,103.884903 32.733334,104.647446 
	C31.960199,105.002968 31.492357,105.018417 31.024517,105.033875 
	C30.354683,103.814201 29.125669,102.604225 29.104338,101.373314 
	C28.947453,92.320618 29.006737,83.263496 29.091932,74.208656 
	C29.098238,73.538773 29.837988,72.875793 30.620195,72.569450 
	C31.004887,81.404755 30.920162,89.881882 31.084675,98.354172 
	C31.115198,99.926102 32.149868,101.478516 32.721092,103.039940 
z"/>
<path fill="#CEDAE2" opacity="1.000000" stroke="none" 
	d="
M32.802292,102.573875 
	C32.149868,101.478516 31.115198,99.926102 31.084675,98.354172 
	C30.920162,89.881882 31.004887,81.404755 31.007513,72.459457 
	C31.399691,71.981590 31.787979,71.973564 32.464600,71.952515 
	C32.796455,81.995605 32.839973,92.051704 32.802292,102.573875 
z"/>
<path fill="#CEDAE2" opacity="1.000000" stroke="none" 
	d="
M110.436546,67.661903 
	C111.411919,67.031067 112.825760,66.108910 114.262512,66.071716 
	C120.528183,65.909508 126.800507,66.004501 133.540192,66.010529 
	C134.026657,66.354660 134.043350,66.694374 134.085388,67.282463 
	C130.380005,67.654350 126.649277,67.777863 122.457199,67.927322 
	C118.292412,67.894806 114.588982,67.836334 110.436546,67.661903 
z"/>
<path fill="#CEDAE2" opacity="1.000000" stroke="none" 
	d="
M63.790215,30.743923 
	C63.899876,36.122654 63.770634,41.291447 63.357376,46.771240 
	C62.410431,42.581158 61.587582,38.093246 61.215210,33.568260 
	C61.137775,32.627289 62.729073,31.548994 63.790215,30.743923 
z"/>
<path fill="#DAEAF0" opacity="1.000000" stroke="none" 
	d="
M62.690369,171.048340 
	C63.320324,172.703537 63.558323,174.476715 63.872581,176.621033 
	C63.943066,178.711060 63.937283,180.429932 63.685234,182.688843 
	C62.967049,183.492538 62.495132,183.756210 62.023220,184.019882 
	C62.114952,179.735367 62.206680,175.450836 62.690369,171.048340 
z"/>
<path fill="#D1D8E0" opacity="1.000000" stroke="none" 
	d="
M105.896957,167.987717 
	C106.421249,172.127380 106.945541,176.267059 107.744461,180.717987 
	C108.021835,181.457214 108.024574,181.885162 107.961426,182.990570 
	C107.843178,183.903946 107.790810,184.139877 107.406448,184.191742 
	C104.523804,178.826324 104.283691,173.475128 105.896957,167.987717 
z"/>
<path fill="#D7D7E2" opacity="1.000000" stroke="none" 
	d="
M192.990387,245.015747 
	C194.990997,247.764862 196.991623,250.513977 199.071381,253.602966 
	C196.415985,250.911575 193.681427,247.880295 190.886993,244.501663 
	C190.827118,244.154312 190.944946,244.052170 191.255463,244.114227 
	C192.040771,244.456116 192.515579,244.735931 192.990387,245.015747 
z"/>
<path fill="#D7D7E2" opacity="1.000000" stroke="none" 
	d="
M213.761108,209.092499 
	C211.659805,211.741653 209.204987,214.397934 206.403564,217.112244 
	C208.507187,214.480042 210.957382,211.789841 213.761108,209.092499 
z"/>
<path fill="#D7D7E2" opacity="1.000000" stroke="none" 
	d="
M220.737671,199.019669 
	C218.966949,202.260452 216.839539,205.545959 214.399628,208.961945 
	C216.185059,205.749756 218.283020,202.407074 220.737671,199.019669 
z"/>
<path fill="#CEDAE2" opacity="1.000000" stroke="none" 
	d="
M37.640831,64.059288 
	C38.237907,64.493179 38.502037,64.971527 38.880100,65.697983 
	C37.232113,67.205360 35.470192,68.464638 33.428902,69.900101 
	C32.958271,70.063347 32.767010,70.050407 32.289215,69.764069 
	C31.999950,69.318604 31.997217,69.146545 31.994482,68.974487 
	C33.765617,67.350906 35.536751,65.727333 37.640831,64.059288 
z"/>
<path fill="#DCDCE7" opacity="1.000000" stroke="none" 
	d="
M190.037613,114.166237 
	C192.373413,114.195335 194.786789,114.602570 197.748306,115.205620 
	C198.645355,115.790421 198.994247,116.179413 199.246124,116.689392 
	C199.149078,116.810379 198.954224,117.051704 198.954224,117.051704 
	C196.007874,116.215927 193.061539,115.380157 190.037613,114.166237 
z"/>
<path fill="#D8E1E9" opacity="1.000000" stroke="none" 
	d="
M107.738449,184.375793 
	C107.790810,184.139877 107.843178,183.903946 107.965752,183.311829 
	C108.984421,185.380737 109.932869,187.805832 110.587341,190.617371 
	C109.597595,190.993423 108.901817,190.983017 108.118179,190.558533 
	C107.933022,188.221573 107.835732,186.298676 107.738449,184.375793 
z"/>
<path fill="#D1D8E0" opacity="1.000000" stroke="none" 
	d="
M64.929276,188.024689 
	C65.500809,189.801331 66.072342,191.577957 66.742546,193.947205 
	C66.760773,194.708908 66.680321,194.878006 66.293182,194.983429 
	C65.002930,194.599701 64.019348,194.279663 63.035774,193.959610 
	C63.035198,193.531174 63.034622,193.102737 63.269669,192.125137 
	C63.979954,190.392212 64.454620,189.208450 64.929276,188.024689 
z"/>
<path fill="#DAEAF0" opacity="1.000000" stroke="none" 
	d="
M63.066906,194.305878 
	C64.019348,194.279663 65.002930,194.599701 66.399902,195.343079 
	C66.824059,196.509338 66.834808,197.252258 66.845566,197.995178 
	C66.394783,198.265106 65.944000,198.535034 65.255997,198.918045 
	C64.378525,197.571457 63.738281,196.111801 63.066906,194.305878 
z"/>
<path fill="#CEDAE2" opacity="1.000000" stroke="none" 
	d="
M31.078909,105.392029 
	C31.492357,105.018417 31.960199,105.002968 32.780071,104.970947 
	C33.132103,104.954376 33.584236,104.965775 33.810387,104.975845 
	C34.624466,105.814400 35.212387,106.642883 35.931351,107.751724 
	C34.419361,107.271454 32.776329,106.510826 31.078909,105.392029 
z"/>
<path fill="#DAEAF0" opacity="1.000000" stroke="none" 
	d="
M64.942871,187.695099 
	C64.454620,189.208450 63.979954,190.392212 63.267319,191.803818 
	C62.694748,190.266098 62.360153,188.500519 62.369617,186.358017 
	C63.406513,186.006943 64.099350,186.032822 64.792191,186.058685 
	C64.846947,186.494293 64.901703,186.929916 64.942871,187.695099 
z"/>
<path fill="#D8E1E9" opacity="1.000000" stroke="none" 
	d="
M112.222916,197.795166 
	C111.817703,198.017075 111.619781,198.023209 110.907639,197.831970 
	C109.945724,196.728668 109.498047,195.822708 109.075455,194.596466 
	C109.116020,193.847855 109.131493,193.419525 109.454636,192.996185 
	C110.172119,192.997757 110.581924,192.994354 110.991730,192.990936 
	C111.471230,194.520432 111.950722,196.049911 112.222916,197.795166 
z"/>
<path fill="#DCDCE7" opacity="1.000000" stroke="none" 
	d="
M146.019135,103.380722 
	C146.439545,102.686546 146.879013,102.365891 147.595520,102.005424 
	C148.216232,103.078415 148.559875,104.191216 149.056702,105.621597 
	C148.152649,105.210854 147.095413,104.482544 146.019135,103.380722 
z"/>
<path fill="#D1D8E0" opacity="1.000000" stroke="none" 
	d="
M64.860382,185.719803 
	C64.099350,186.032822 63.406513,186.006943 62.365391,185.970825 
	C62.016937,185.529312 62.016762,185.098038 62.019905,184.343323 
	C62.495132,183.756210 62.967049,183.492538 63.684990,183.118301 
	C64.263527,183.798798 64.596054,184.589859 64.860382,185.719803 
z"/>
<path fill="#DCDCE7" opacity="1.000000" stroke="none" 
	d="
M203.099701,118.865616 
	C201.691269,118.603981 200.416977,118.170135 199.048447,117.393997 
	C198.954224,117.051704 199.149078,116.810379 199.560547,116.765320 
	C201.148285,117.262840 202.324554,117.805435 203.500824,118.348022 
	C203.500824,118.348022 203.233826,118.693413 203.099701,118.865616 
z"/>
<path fill="#D1D8E0" opacity="1.000000" stroke="none" 
	d="
M110.993896,192.660416 
	C110.581924,192.994354 110.172119,192.997757 109.203217,192.825623 
	C108.498093,192.090912 108.352074,191.531769 108.206047,190.972610 
	C108.901817,190.983017 109.597595,190.993423 110.641296,191.006012 
	C110.991501,191.448761 110.993782,191.889328 110.993896,192.660416 
z"/>
<path fill="#D8E1E9" opacity="1.000000" stroke="none" 
	d="
M140.872223,72.117188 
	C140.289017,72.236877 139.974457,72.130745 139.417023,71.974907 
	C139.083206,71.514023 138.993088,71.100357 138.824890,70.378036 
	C139.544571,70.677551 140.342300,71.285706 140.872223,72.117188 
z"/>
<path fill="#DCDCE7" opacity="1.000000" stroke="none" 
	d="
M147.837250,74.035629 
	C147.425125,74.027275 147.013016,74.018921 146.291443,74.003601 
	C146.166794,73.451233 146.351578,72.905823 146.765137,72.177582 
	C147.180206,71.999977 147.366486,72.005188 147.813492,72.355377 
	C147.995224,73.145462 147.916245,73.590546 147.837250,74.035629 
z"/>
<path fill="#D8E1E9" opacity="1.000000" stroke="none" 
	d="
M136.942886,68.002174 
	C136.761139,68.192986 136.591858,68.132683 136.185349,67.941963 
	C136.197769,67.501526 136.447433,67.191498 136.697083,66.881470 
	C136.783188,67.171333 136.869278,67.461197 136.942886,68.002174 
z"/>
<path fill="#DAEAF0" opacity="1.000000" stroke="none" 
	d="
M31.846807,69.077110 
	C31.997217,69.146545 31.999950,69.318604 32.002068,69.748825 
	C31.900679,69.731232 31.799906,69.455482 31.846807,69.077110 
z"/>
<path fill="#B357A0" opacity="1.000000" stroke="none" 
	d="
M267.708801,147.066345 
	C271.112518,159.244278 271.546478,171.642151 269.788208,184.692688 
	C268.938171,185.506104 268.421600,185.769806 267.904999,186.033508 
	C266.031769,182.234863 264.158539,178.436203 262.065613,174.133896 
	C261.715424,173.401611 261.539703,173.215714 261.318787,173.072556 
	C260.535309,172.350861 259.751831,171.629166 258.968353,170.907471 
	C258.622589,171.123276 258.276825,171.339081 257.931061,171.554871 
	C258.609589,173.185715 259.247192,174.835022 259.972839,176.444626 
	C269.803253,198.251251 263.548248,217.190155 249.650925,234.812881 
	C240.912033,245.894409 230.591522,255.073715 218.121246,261.806549 
	C210.625336,265.853638 209.234161,265.631317 204.018677,258.365601 
	C208.233856,258.536591 210.730789,256.639008 212.796585,252.661545 
	C223.413696,232.219330 234.507629,212.024368 245.086395,191.562790 
	C248.394928,185.163376 250.520279,178.160278 253.397964,171.524872 
	C254.200089,169.675339 255.948425,168.257751 256.929321,166.460098 
	C259.826355,161.150772 262.542877,155.743210 265.363098,150.391510 
	C265.954132,149.269913 266.686584,148.222839 267.708801,147.066345 
z"/>
<path fill="#AD62A4" opacity="1.000000" stroke="none" 
	d="
M233.934921,153.106064 
	C232.117691,148.406311 230.300461,143.706573 228.839264,138.562012 
	C231.156189,136.356262 234.008118,134.966263 234.922592,132.769684 
	C238.731201,123.621132 247.240448,116.382187 246.296509,105.294357 
	C250.203262,110.591133 254.148453,115.860291 257.987030,121.206001 
	C258.840851,122.395035 259.319336,123.853615 260.022095,125.529495 
	C258.699677,128.279572 257.253174,130.650162 255.964996,133.103867 
	C251.567474,141.480286 247.389130,149.978943 242.713852,158.195816 
	C241.859222,159.697830 239.067352,160.097610 236.630600,160.685425 
	C235.372620,157.945129 234.653763,155.525589 233.934921,153.106064 
z"/>
<path fill="#B067A6" opacity="1.000000" stroke="none" 
	d="
M193.162750,244.713928 
	C192.515579,244.735931 192.040771,244.456116 191.313828,244.062531 
	C189.716217,241.872955 188.441193,239.747131 187.010513,237.731796 
	C184.115189,233.653290 184.773972,230.240799 189.158020,227.916489 
	C193.698181,225.509354 198.315628,223.247940 203.214539,220.833679 
	C204.228287,222.691040 206.016724,225.090302 205.429932,226.502899 
	C203.288895,231.657059 200.509109,236.574524 197.622925,241.372391 
	C196.795593,242.747726 194.796799,243.418350 193.162750,244.713928 
z"/>
<path fill="#AD62A4" opacity="1.000000" stroke="none" 
	d="
M229.688568,172.016296 
	C229.202850,170.302887 229.080261,168.587585 229.217590,166.215942 
	C230.655502,164.704041 231.833496,163.848495 233.173920,163.275269 
	C234.244064,164.127289 235.151779,164.697006 236.059479,165.266739 
	C236.044083,165.760071 235.959641,166.262634 236.024033,166.745316 
	C236.656769,171.488724 235.072784,173.692062 229.688568,172.016296 
z"/>
<path fill="#D4BBD3" opacity="1.000000" stroke="none" 
	d="
M236.064728,164.834503 
	C235.151779,164.697006 234.244064,164.127289 233.197510,162.881454 
	C233.011963,161.156479 232.965256,160.107620 232.918579,159.058762 
	C233.262390,157.339706 233.606201,155.620636 233.942474,153.503815 
	C234.653763,155.525589 235.372620,157.945129 236.242737,160.687408 
	C236.286011,162.140854 236.177994,163.271545 236.064728,164.834503 
z"/>
<path fill="#B981B3" opacity="1.000000" stroke="none" 
	d="
M228.557953,178.972214 
	C228.355225,177.885239 228.453568,176.695297 228.823334,175.263519 
	C229.016174,176.304214 228.937607,177.586716 228.557953,178.972214 
z"/>
<path fill="#B981B3" opacity="1.000000" stroke="none" 
	d="
M227.482269,185.015244 
	C227.324570,184.511642 227.427094,183.948685 227.751465,183.190430 
	C227.896362,183.648697 227.819412,184.302307 227.482269,185.015244 
z"/>
<path fill="#8E95BB" opacity="1.000000" stroke="none" 
	d="
M67.125404,198.227158 
	C66.834808,197.252258 66.824059,196.509338 66.706581,195.406769 
	C66.680321,194.878006 66.760773,194.708908 66.916939,194.269287 
	C68.251236,193.155792 70.036705,192.603729 70.687462,191.425125 
	C77.719757,178.688919 84.649414,165.894241 91.447075,153.030960 
	C95.373215,145.601471 98.974968,138.001053 102.814461,130.524689 
	C103.300339,129.578583 104.344780,128.919312 105.461670,128.066772 
	C105.835175,133.696136 105.877457,139.385880 105.505096,145.556244 
	C104.437599,146.454453 103.490059,146.716492 103.175407,147.312592 
	C96.835533,159.323654 90.763344,171.480377 84.215858,183.375854 
	C80.077652,190.894135 75.251778,198.033920 70.734344,205.343475 
	C69.624657,203.048691 68.514954,200.753922 67.125404,198.227158 
z"/>
<path fill="#CEDAE2" opacity="1.000000" stroke="none" 
	d="
M62.914009,109.629814 
	C55.214592,109.850311 47.408253,109.697441 39.292652,109.261795 
	C43.347637,108.703712 47.711887,108.428413 52.539066,108.135155 
	C56.270363,108.496941 59.538727,108.876694 62.914009,109.629814 
z"/>
<path fill="#CEDAE2" opacity="1.000000" stroke="none" 
	d="
M62.227234,65.830841 
	C61.993923,65.351814 62.036930,64.887146 62.165054,64.077827 
	C62.334633,64.437187 62.419090,65.141182 62.227234,65.830841 
z"/>
<path fill="#80A3C2" opacity="1.000000" stroke="none" 
	d="
M105.532906,48.001812 
	C105.967163,51.368690 106.044388,54.747314 106.219116,58.579403 
	C105.204201,62.143314 104.177284,65.287964 102.950981,68.352844 
	C102.052299,70.598892 100.891922,72.740227 99.557877,75.446976 
	C98.950356,76.657074 98.633125,77.348412 98.315903,78.039757 
	C97.135315,84.088051 95.954727,90.136337 94.665390,96.928024 
	C94.361572,98.780083 94.166504,99.888756 93.971436,100.997421 
	C92.146904,102.667465 89.727272,104.009560 88.596352,106.061829 
	C82.203430,117.662888 76.218369,129.488602 69.834358,141.094772 
	C68.754326,143.058258 66.409996,144.326309 64.285309,145.956467 
	C63.897636,136.276230 63.874462,126.555206 63.890453,116.416809 
	C66.375694,112.816673 69.301567,109.893410 71.187111,106.407448 
	C80.771950,88.687126 90.009453,70.778900 99.601151,53.062386 
	C100.726974,50.982914 103.282906,49.677700 105.532906,48.001812 
z"/>
<path fill="#CDD5DF" opacity="1.000000" stroke="none" 
	d="
M94.068008,101.321823 
	C94.166504,99.888756 94.361572,98.780083 94.677750,97.358894 
	C95.304947,97.032188 95.811028,97.018005 96.696030,96.999130 
	C96.882599,98.804527 96.690254,100.614632 96.497902,102.424728 
	C95.720123,102.165222 94.942352,101.905724 94.068008,101.321823 
z"/>
<path fill="#A672AB" opacity="1.000000" stroke="none" 
	d="
M203.850815,118.454132 
	C202.324554,117.805435 201.148285,117.262840 199.657593,116.644333 
	C198.994247,116.179413 198.645355,115.790421 198.156525,115.179695 
	C203.129333,105.731865 208.328217,96.551628 213.284836,87.242401 
	C214.322449,85.293663 214.467133,82.869492 215.041382,80.241043 
	C220.708786,83.478935 226.358093,87.140190 232.040878,91.578369 
	C231.209930,95.306847 230.742004,98.453041 229.406631,101.173424 
	C225.417648,109.299675 221.088791,117.259087 216.892670,125.283653 
	C212.662048,123.042519 208.431427,120.801384 203.850815,118.454132 
z"/>
<path fill="#AA6AA7" opacity="1.000000" stroke="none" 
	d="
M217.071838,125.548416 
	C221.088791,117.259087 225.417648,109.299675 229.406631,101.173424 
	C230.742004,98.453041 231.209930,95.306847 232.107422,91.895355 
	C236.812241,95.861923 241.484009,100.288429 246.226151,105.004646 
	C247.240448,116.382187 238.731201,123.621132 234.922592,132.769684 
	C234.008118,134.966263 231.156189,136.356262 228.762115,138.182922 
	C224.636292,134.103500 220.943665,129.958328 217.071838,125.548416 
z"/>
<path fill="#9C81B1" opacity="1.000000" stroke="none" 
	d="
M171.995682,109.430840 
	C169.952728,109.235878 167.909790,109.040909 165.434875,108.740845 
	C166.963547,103.974319 168.744858,99.227135 170.924164,94.670280 
	C174.822250,86.519554 178.960159,78.483528 183.071060,69.992569 
	C187.937866,70.504585 192.731430,71.423592 197.776215,72.609047 
	C192.582275,83.847725 187.136246,94.819542 181.693100,105.792793 
	C181.125992,106.936020 180.575790,108.087639 180.009033,109.598175 
	C178.600220,109.980598 177.200134,110.000214 175.155823,109.820694 
	C173.672974,109.557983 172.834320,109.494408 171.995682,109.430840 
z"/>
<path fill="#978FB8" opacity="1.000000" stroke="none" 
	d="
M147.892120,74.479027 
	C147.916245,73.590546 147.995224,73.145462 148.092941,72.361771 
	C152.976456,65.787415 159.870743,68.348106 166.531036,67.912537 
	C164.854370,73.248909 162.916946,78.648071 160.512054,83.830292 
	C158.290680,88.617035 155.707016,93.254852 152.982697,97.777412 
	C152.153198,99.154419 150.327896,99.931549 148.615204,100.996674 
	C148.159851,99.626007 148.047974,98.242081 147.956604,95.982742 
	C147.923141,91.062080 147.869141,87.016815 147.815155,82.971558 
	C147.859085,80.288513 147.903015,77.605469 147.892120,74.479027 
z"/>
<path fill="#B05BA2" opacity="1.000000" stroke="none" 
	d="
M267.920105,186.372406 
	C268.421600,185.769806 268.938171,185.506104 269.718811,185.124847 
	C269.755188,186.123596 269.527466,187.239899 269.299744,188.356201 
	C268.844910,187.807892 268.390045,187.259598 267.920105,186.372406 
z"/>
<path fill="#B05BA2" opacity="1.000000" stroke="none" 
	d="
M261.310333,173.290039 
	C261.539703,173.215714 261.715424,173.401611 261.923004,173.808182 
	C261.687622,173.942749 261.454895,173.783218 261.310333,173.290039 
z"/>
<path fill="#D7D7E2" opacity="1.000000" stroke="none" 
	d="
M156.694138,108.841721 
	C155.465408,108.923157 153.966019,108.763481 152.256897,108.368774 
	C153.505920,108.289368 154.964706,108.444992 156.694138,108.841721 
z"/>
<path fill="#A571AA" opacity="1.000000" stroke="none" 
	d="
M130.072159,220.862762 
	C132.186050,221.919022 134.216202,223.215652 136.429413,223.986877 
	C143.315598,226.386398 150.271194,228.586761 157.595337,231.258240 
	C158.003143,232.077179 158.015472,232.502228 158.065338,233.296677 
	C157.709610,236.149323 157.962189,238.992676 156.812729,241.054337 
	C151.456406,250.661453 145.705826,260.048584 140.131607,269.535156 
	C139.905273,269.920380 140.034958,270.514801 139.998779,271.011749 
	C133.086990,268.305145 126.175201,265.598541 119.136642,262.255920 
	C123.452286,254.166977 127.915939,246.726547 132.320892,239.251556 
	C133.315552,237.563690 134.105942,235.755463 135.215271,234.265381 
	C137.632370,235.354843 139.824554,236.181564 142.172211,236.936340 
	C142.399673,236.779633 142.540390,236.685684 142.530563,236.611786 
	C142.502731,236.403030 142.413193,236.202484 142.267761,235.673935 
	C141.176575,234.516388 140.165619,233.683609 138.997726,232.640076 
	C138.576263,232.199203 138.311737,231.969086 138.063477,231.535416 
	C138.079742,231.331848 138.043594,230.925034 137.985306,230.592743 
	C136.005478,228.489334 134.083954,226.718246 132.162415,224.947144 
	C131.457306,223.852554 130.752197,222.757980 130.041687,221.312500 
	C130.036316,220.961624 130.072159,220.862762 130.072159,220.862762 
z"/>
<path fill="#9A85B3" opacity="1.000000" stroke="none" 
	d="
M109.050369,194.916748 
	C109.498047,195.822708 109.945724,196.728668 110.611115,197.849213 
	C113.107277,203.386292 115.371162,208.715057 117.676765,214.025726 
	C118.123840,215.055511 118.733696,216.014587 119.009369,217.590057 
	C117.133636,220.852676 115.430298,223.483551 113.916748,226.219406 
	C109.530014,234.148788 105.219505,242.120331 100.879082,250.075333 
	C95.981491,244.989273 91.083900,239.903214 86.108948,234.150848 
	C91.053322,224.254837 95.925346,214.938889 101.167397,205.836060 
	C103.395813,201.966370 106.399185,198.542969 109.050369,194.916748 
z"/>
<path fill="#AA69A7" opacity="1.000000" stroke="none" 
	d="
M140.372437,271.081299 
	C140.034958,270.514801 139.905273,269.920380 140.131607,269.535156 
	C145.705826,260.048584 151.456406,250.661453 156.812729,241.054337 
	C157.962189,238.992676 157.709610,236.149323 158.464722,233.312256 
	C160.552841,232.630188 162.279144,232.301941 164.005447,231.973694 
	C169.871826,231.365433 174.967621,232.264130 177.147522,239.538361 
	C175.607864,244.458771 174.729782,248.921432 172.543884,252.608841 
	C167.983109,260.302399 166.605560,270.353973 157.056641,274.533600 
	C155.291702,274.361694 153.526749,274.189758 151.339844,273.647278 
	C150.272156,273.211121 149.626465,273.145477 148.980759,273.079834 
	C146.235870,272.436829 143.490982,271.793854 140.372437,271.081299 
z"/>
<path fill="#948CB7" opacity="1.000000" stroke="none" 
	d="
M109.075455,194.596466 
	C106.399185,198.542969 103.395813,201.966370 101.167397,205.836060 
	C95.925346,214.938889 91.053322,224.254837 85.962082,233.853912 
	C82.560074,229.061905 79.227570,223.900513 76.224693,218.330093 
	C78.175301,215.383728 79.968719,212.938843 81.387352,210.293015 
	C87.471992,198.944855 93.363853,187.492706 99.512993,176.180130 
	C101.271561,172.944901 103.659081,170.051559 105.758209,167.001465 
	C105.758209,167.001465 105.870567,167.488586 105.883759,167.738159 
	C104.283691,173.475128 104.523804,178.826324 107.406448,184.191742 
	C107.835732,186.298676 107.933022,188.221573 108.118179,190.558533 
	C108.352074,191.531769 108.498093,192.090912 108.895538,192.820633 
	C109.131493,193.419525 109.116020,193.847855 109.075455,194.596466 
z"/>
<path fill="#A37EAF" opacity="1.000000" stroke="none" 
	d="
M101.052628,250.365143 
	C105.219505,242.120331 109.530014,234.148788 113.916748,226.219406 
	C115.430298,223.483551 117.133636,220.852676 119.057083,217.947205 
	C124.073418,222.352295 128.782944,226.984039 133.877197,232.049500 
	C134.504730,232.989670 134.747543,233.496155 134.990372,234.002640 
	C134.105942,235.755463 133.315552,237.563690 132.320892,239.251556 
	C127.915939,246.726547 123.452286,254.166977 118.915955,261.987488 
	C112.956757,258.455048 107.091461,254.554993 101.052628,250.365143 
z"/>
<path fill="#AE62A4" opacity="1.000000" stroke="none" 
	d="
M157.504456,274.666992 
	C166.605560,270.353973 167.983109,260.302399 172.543884,252.608841 
	C174.729782,248.921432 175.607864,244.458771 177.114120,239.879486 
	C180.894531,243.179611 184.639084,246.947449 188.679276,250.867386 
	C192.464783,255.619934 195.985855,260.197144 199.433456,264.829071 
	C201.706604,267.883087 200.945938,270.095520 197.375931,271.032135 
	C184.440079,274.425995 171.322067,275.935944 157.504456,274.666992 
z"/>
<path fill="#8F91B9" opacity="1.000000" stroke="none" 
	d="
M105.837234,166.537888 
	C103.659081,170.051559 101.271561,172.944901 99.512993,176.180130 
	C93.363853,187.492706 87.471992,198.944855 81.387352,210.293015 
	C79.968719,212.938843 78.175301,215.383728 76.180222,217.967758 
	C74.130203,214.036728 72.454277,210.059006 70.756348,205.712372 
	C75.251778,198.033920 80.077652,190.894135 84.215858,183.375854 
	C90.763344,171.480377 96.835533,159.323654 103.175407,147.312592 
	C103.490059,146.716492 104.437599,146.454453 105.438187,146.019897 
	C105.829376,152.693390 105.872818,159.383850 105.837234,166.537888 
z"/>
<path fill="#A37EAF" opacity="1.000000" stroke="none" 
	d="
M149.170197,273.297913 
	C149.626465,273.145477 150.272156,273.211121 150.965836,273.540344 
	C150.462418,273.707977 149.911041,273.612000 149.170197,273.297913 
z"/>
<path fill="#C8BDCF" opacity="1.000000" stroke="none" 
	d="
M135.215271,234.265381 
	C134.747543,233.496155 134.504730,232.989670 134.168747,232.216827 
	C134.913788,231.801712 135.751968,231.652969 137.056061,231.231384 
	C137.695831,230.947372 137.869720,230.936203 138.043594,230.925034 
	C138.043594,230.925034 138.079742,231.331848 138.061951,231.793640 
	C138.414322,232.453888 138.784500,232.652359 139.154663,232.850830 
	C140.165619,233.683609 141.176575,234.516388 142.152924,235.915771 
	C142.084457,236.657654 142.050613,236.832962 142.016754,237.008286 
	C139.824554,236.181564 137.632370,235.354843 135.215271,234.265381 
z"/>
<path fill="#B08DB7" opacity="1.000000" stroke="none" 
	d="
M137.985306,230.592743 
	C137.869720,230.936203 137.695831,230.947372 137.261292,230.977692 
	C135.380051,229.206696 133.759476,227.416519 132.150665,225.286743 
	C134.083954,226.718246 136.005478,228.489334 137.985306,230.592743 
z"/>
<path fill="#B68DB7" opacity="1.000000" stroke="none" 
	d="
M163.714264,231.728653 
	C162.279144,232.301941 160.552841,232.630188 158.427170,232.942871 
	C158.015472,232.502228 158.003143,232.077179 157.990112,231.332642 
	C159.800629,231.169983 161.611862,231.326797 163.714264,231.728653 
z"/>
<path fill="#A989B5" opacity="1.000000" stroke="none" 
	d="
M129.990936,220.988144 
	C129.714264,220.660141 129.482971,220.305634 129.251694,219.951111 
	C129.532944,220.103317 129.814194,220.255539 130.083801,220.635254 
	C130.072159,220.862762 130.036316,220.961624 129.990936,220.988144 
z"/>
<path fill="#B981B3" opacity="1.000000" stroke="none" 
	d="
M232.694885,158.855743 
	C232.965256,160.107620 233.011963,161.156479 233.035080,162.599152 
	C231.833496,163.848495 230.655502,164.704041 229.215820,165.785797 
	C227.325363,159.865784 225.772278,153.697769 224.014694,147.588593 
	C223.574783,146.059509 222.477112,144.719650 221.385071,143.111633 
	C220.742783,141.544174 220.397141,140.157883 220.051514,138.771606 
	C226.345474,142.228226 228.560425,148.292465 230.606873,154.666351 
	C229.926743,155.183105 229.505859,155.329147 229.084976,155.475189 
	C229.139343,155.638229 229.193710,155.801270 229.248077,155.964310 
	C229.892609,155.964310 230.537125,155.964310 231.181656,155.964310 
	C231.611511,156.860443 232.041367,157.756577 232.694885,158.855743 
M229.663315,159.547043 
	C229.958572,159.766998 230.253830,159.986938 230.549088,160.206894 
	C230.359390,159.901474 230.169708,159.596054 229.663315,159.547043 
z"/>
<path fill="#AD62A4" opacity="1.000000" stroke="none" 
	d="
M231.145599,155.722626 
	C230.537125,155.964310 229.892609,155.964310 229.248077,155.964310 
	C229.193710,155.801270 229.139343,155.638229 229.084976,155.475189 
	C229.505859,155.329147 229.926743,155.183105 230.633240,155.034027 
	C230.918839,155.030975 231.109543,155.480957 231.145599,155.722626 
z"/>
<path fill="#CDD5DF" opacity="1.000000" stroke="none" 
	d="
M98.612511,77.942207 
	C98.633125,77.348412 98.950356,76.657074 99.534554,75.807831 
	C99.504059,76.381500 99.206589,77.113083 98.612511,77.942207 
z"/>
<path fill="#DCDCE7" opacity="1.000000" stroke="none" 
	d="
M147.452927,83.104630 
	C147.869141,87.016815 147.923141,91.062080 147.903564,95.569244 
	C144.498444,91.944946 145.723099,87.595459 147.452927,83.104630 
z"/>
<path fill="#D7D7E2" opacity="1.000000" stroke="none" 
	d="
M172.080917,109.695145 
	C172.834320,109.494408 173.672974,109.557983 174.737000,109.855293 
	C174.030304,110.045837 173.098236,110.002647 172.080917,109.695145 
z"/>
<path fill="#D1D8E0" opacity="1.000000" stroke="none" 
	d="
M138.997726,232.640076 
	C138.784500,232.652359 138.414322,232.453888 138.045685,231.997192 
	C138.311737,231.969086 138.576263,232.199203 138.997726,232.640076 
z"/>
<path fill="#B08DB7" opacity="1.000000" stroke="none" 
	d="
M142.172211,236.936340 
	C142.050613,236.832962 142.084457,236.657654 142.233139,236.240540 
	C142.413193,236.202484 142.502731,236.403030 142.530563,236.611786 
	C142.540390,236.685684 142.399673,236.779633 142.172211,236.936340 
z"/>
<path fill="#AD62A4" opacity="1.000000" stroke="none" 
	d="
M229.821655,159.418839 
	C230.169708,159.596054 230.359390,159.901474 230.549088,160.206894 
	C230.253830,159.986938 229.958572,159.766998 229.821655,159.418839 
z"/>
</svg>